HIERARCHY
ROOT Hips
{
	OFFSET -36.914093 -31.906210 87.552063
	CHANNELS 6 Xposition Yposition Zposition Zrotation Yrotation Xrotation
	JOINT Spine
	{
		OFFSET 0.000000 2.080109 8.814247
		CHANNELS 6 Xposition Yposition Zposition Zrotation Yrotation Xrotation
		JOINT Spine1
		{
			OFFSET 0.000000 0.000000 8.844139
			CHANNELS 6 Xposition Yposition Zposition Zrotation Yrotation Xrotation
			JOINT Spine2
			{
				OFFSET 0.000000 0.000002 11.682266
				CHANNELS 6 Xposition Yposition Zposition Zrotation Yrotation Xrotation
				JOINT Spine3
				{
					OFFSET 0.000000 0.000000 11.746704
					CHANNELS 6 Xposition Yposition Zposition Zrotation Yrotation Xrotation
					JOINT Neck
					{
						OFFSET 0.000000 0.000002 17.658264
						CHANNELS 6 Xposition Yposition Zposition Zrotation Yrotation Xrotation
						JOINT Neck1
						{
							OFFSET 0.000000 0.000000 5.101517
							CHANNELS 6 Xposition Yposition Zposition Zrotation Yrotation Xrotation
							JOINT Head
							{
								OFFSET 0.000000 0.000000 5.101517
								CHANNELS 6 Xposition Yposition Zposition Zrotation Yrotation Xrotation
								JOINT HeadEnd
								{
									OFFSET 0.000000 0.000002 11.655090
									CHANNELS 6 Xposition Yposition Zposition Zrotation Yrotation Xrotation
									End Site
									{
										OFFSET 0.000000 0.000000 0.100006
									}
								}
							}
						}
					}
					JOINT RightShoulder
					{
						OFFSET -2.625389 0.000002 11.175217
						CHANNELS 6 Xposition Yposition Zposition Zrotation Yrotation Xrotation
						JOINT RightArm
						{
							OFFSET 0.000000 0.000000 10.434723
							CHANNELS 6 Xposition Yposition Zposition Zrotation Yrotation Xrotation
							JOINT RightForeArm
							{
								OFFSET 0.000000 0.000002 29.628418
								CHANNELS 6 Xposition Yposition Zposition Zrotation Yrotation Xrotation
								JOINT RightHand
								{
									OFFSET 0.000000 0.000002 22.857605
									CHANNELS 6 Xposition Yposition Zposition Zrotation Yrotation Xrotation
									JOINT RightHandThumb1
									{
										OFFSET -2.867325 -2.944292 3.959564
										CHANNELS 6 Xposition Yposition Zposition Zrotation Yrotation Xrotation
										JOINT RightHandThumb2
										{
											OFFSET 0.000000 0.000000 3.350403
											CHANNELS 6 Xposition Yposition Zposition Zrotation Yrotation Xrotation
											JOINT RightHandThumb3
											{
												OFFSET 0.000000 0.000000 3.756516
												CHANNELS 6 Xposition Yposition Zposition Zrotation Yrotation Xrotation
												JOINT RightHandThumb4
												{
													OFFSET 0.000000 0.000000 3.147339
													CHANNELS 6 Xposition Yposition Zposition Zrotation Yrotation Xrotation
													End Site
													{
														OFFSET 0.000000 0.000000 0.100006
													}
												}
											}
										}
									}
									JOINT RightHandIndex1
									{
										OFFSET -0.086754 -2.345282 10.030899
										CHANNELS 6 Xposition Yposition Zposition Zrotation Yrotation Xrotation
										JOINT RightHandIndex2
										{
											OFFSET 0.000000 0.000000 4.061096
											CHANNELS 6 Xposition Yposition Zposition Zrotation Yrotation Xrotation
											JOINT RightHandIndex3
											{
												OFFSET 0.000000 0.000000 3.248871
												CHANNELS 6 Xposition Yposition Zposition Zrotation Yrotation Xrotation
												JOINT RightHandIndex4
												{
													OFFSET 0.000000 0.000000 2.639709
													CHANNELS 6 Xposition Yposition Zposition Zrotation Yrotation Xrotation
													End Site
													{
														OFFSET 0.000000 0.000000 0.100006
													}
												}
											}
										}
									}
									JOINT RightHandMiddle1
									{
										OFFSET 0.104103 -0.006767 9.502945
										CHANNELS 6 Xposition Yposition Zposition Zrotation Yrotation Xrotation
										JOINT RightHandMiddle2
										{
											OFFSET 0.000000 0.000002 4.568726
											CHANNELS 6 Xposition Yposition Zposition Zrotation Yrotation Xrotation
											JOINT RightHandMiddle3
											{
												OFFSET 0.000000 0.000000 3.654984
												CHANNELS 6 Xposition Yposition Zposition Zrotation Yrotation Xrotation
												JOINT RightHandMiddle4
												{
													OFFSET 0.000000 0.000000 2.741241
													CHANNELS 6 Xposition Yposition Zposition Zrotation Yrotation Xrotation
													End Site
													{
														OFFSET 0.000000 0.000000 0.100006
													}
												}
											}
										}
									}
									JOINT RightHandRing1
									{
										OFFSET 0.086754 2.267443 8.921707
										CHANNELS 6 Xposition Yposition Zposition Zrotation Yrotation Xrotation
										JOINT RightHandRing2
										{
											OFFSET 0.000000 0.000002 4.061096
											CHANNELS 6 Xposition Yposition Zposition Zrotation Yrotation Xrotation
											JOINT RightHandRing3
											{
												OFFSET 0.000000 0.000000 3.654984
												CHANNELS 6 Xposition Yposition Zposition Zrotation Yrotation Xrotation
												JOINT RightHandRing4
												{
													OFFSET 0.000000 0.000000 2.741241
													CHANNELS 6 Xposition Yposition Zposition Zrotation Yrotation Xrotation
													End Site
													{
														OFFSET 0.000000 0.000000 0.100006
													}
												}
											}
										}
									}
									JOINT RightHandPinky1
									{
										OFFSET -0.173504 4.467199 7.976990
										CHANNELS 6 Xposition Yposition Zposition Zrotation Yrotation Xrotation
										JOINT RightHandPinky2
										{
											OFFSET 0.000000 0.000000 3.350403
											CHANNELS 6 Xposition Yposition Zposition Zrotation Yrotation Xrotation
											JOINT RightHandPinky3
											{
												OFFSET 0.000000 0.000002 2.842758
												CHANNELS 6 Xposition Yposition Zposition Zrotation Yrotation Xrotation
												JOINT RightHandPinky4
												{
													OFFSET 0.000000 0.000000 2.639709
													CHANNELS 6 Xposition Yposition Zposition Zrotation Yrotation Xrotation
													End Site
													{
														OFFSET 0.000000 0.000000 0.100006
													}
												}
											}
										}
									}
									JOINT RightForeArmEnd
									{
										OFFSET 0.000000 0.000000 0.000000
										CHANNELS 6 Xposition Yposition Zposition Zrotation Yrotation Xrotation
										End Site
										{
											OFFSET 0.000000 0.000000 0.100006
										}
									}
								}
								JOINT RightArmEnd
								{
									OFFSET 0.000000 0.000000 0.000000
									CHANNELS 6 Xposition Yposition Zposition Zrotation Yrotation Xrotation
									End Site
									{
										OFFSET 0.000000 0.000000 0.100006
									}
								}
							}
						}
					}
					JOINT LeftShoulder
					{
						OFFSET 2.625389 0.000002 11.175217
						CHANNELS 6 Xposition Yposition Zposition Zrotation Yrotation Xrotation
						JOINT LeftArm
						{
							OFFSET 0.000000 0.000000 10.813629
							CHANNELS 6 Xposition Yposition Zposition Zrotation Yrotation Xrotation
							JOINT LeftForeArm
							{
								OFFSET 0.000000 0.000002 28.724777
								CHANNELS 6 Xposition Yposition Zposition Zrotation Yrotation Xrotation
								JOINT LeftHand
								{
									OFFSET 0.644382 0.328873 25.716171
									CHANNELS 6 Xposition Yposition Zposition Zrotation Yrotation Xrotation
									JOINT LeftHandThumb1
									{
										OFFSET 2.867323 -2.944290 3.959564
										CHANNELS 6 Xposition Yposition Zposition Zrotation Yrotation Xrotation
										JOINT LeftHandThumb2
										{
											OFFSET 0.000000 0.000000 3.350403
											CHANNELS 6 Xposition Yposition Zposition Zrotation Yrotation Xrotation
											JOINT LeftHandThumb3
											{
												OFFSET 0.000000 0.000000 3.756516
												CHANNELS 6 Xposition Yposition Zposition Zrotation Yrotation Xrotation
												JOINT LeftHandThumb4
												{
													OFFSET 0.000000 0.000000 3.100006
													CHANNELS 6 Xposition Yposition Zposition Zrotation Yrotation Xrotation
													End Site
													{
														OFFSET 0.000000 0.000000 0.100006
													}
												}
											}
										}
									}
									JOINT LeftHandIndex1
									{
										OFFSET 0.086754 -2.345278 10.030899
										CHANNELS 6 Xposition Yposition Zposition Zrotation Yrotation Xrotation
										JOINT LeftHandIndex2
										{
											OFFSET 0.000000 0.000000 4.061096
											CHANNELS 6 Xposition Yposition Zposition Zrotation Yrotation Xrotation
											JOINT LeftHandIndex3
											{
												OFFSET 0.000000 0.000000 3.248871
												CHANNELS 6 Xposition Yposition Zposition Zrotation Yrotation Xrotation
												JOINT LeftHandIndex4
												{
													OFFSET 0.000000 0.000000 2.639709
													CHANNELS 6 Xposition Yposition Zposition Zrotation Yrotation Xrotation
													End Site
													{
														OFFSET 0.000000 0.000000 0.100006
													}
												}
											}
										}
									}
									JOINT LeftHandMiddle1
									{
										OFFSET -0.104103 -0.006767 9.502945
										CHANNELS 6 Xposition Yposition Zposition Zrotation Yrotation Xrotation
										JOINT LeftHandMiddle2
										{
											OFFSET 0.000000 0.000002 4.568726
											CHANNELS 6 Xposition Yposition Zposition Zrotation Yrotation Xrotation
											JOINT LeftHandMiddle3
											{
												OFFSET 0.000000 0.000000 3.654984
												CHANNELS 6 Xposition Yposition Zposition Zrotation Yrotation Xrotation
												JOINT LeftHandMiddle4
												{
													OFFSET 0.000000 0.000000 2.741241
													CHANNELS 6 Xposition Yposition Zposition Zrotation Yrotation Xrotation
													End Site
													{
														OFFSET 0.000000 0.000000 0.100006
													}
												}
											}
										}
									}
									JOINT LeftHandRing1
									{
										OFFSET -0.086754 2.267443 8.921707
										CHANNELS 6 Xposition Yposition Zposition Zrotation Yrotation Xrotation
										JOINT LeftHandRing2
										{
											OFFSET 0.000000 0.000002 4.061096
											CHANNELS 6 Xposition Yposition Zposition Zrotation Yrotation Xrotation
											JOINT LeftHandRing3
											{
												OFFSET 0.000000 0.000000 3.654984
												CHANNELS 6 Xposition Yposition Zposition Zrotation Yrotation Xrotation
												JOINT LeftHandRing4
												{
													OFFSET 0.000000 0.000000 2.741241
													CHANNELS 6 Xposition Yposition Zposition Zrotation Yrotation Xrotation
													End Site
													{
														OFFSET 0.000000 0.000000 0.100006
													}
												}
											}
										}
									}
									JOINT LeftHandPinky1
									{
										OFFSET 0.173504 4.467199 7.976990
										CHANNELS 6 Xposition Yposition Zposition Zrotation Yrotation Xrotation
										JOINT LeftHandPinky2
										{
											OFFSET 0.000000 0.000002 3.350403
											CHANNELS 6 Xposition Yposition Zposition Zrotation Yrotation Xrotation
											JOINT LeftHandPinky3
											{
												OFFSET 0.000000 0.000000 2.842758
												CHANNELS 6 Xposition Yposition Zposition Zrotation Yrotation Xrotation
												JOINT LeftHandPinky4
												{
													OFFSET 0.000000 0.000000 2.639709
													CHANNELS 6 Xposition Yposition Zposition Zrotation Yrotation Xrotation
													End Site
													{
														OFFSET 0.000000 0.000000 0.100006
													}
												}
											}
										}
									}
									JOINT LeftForeArmEnd
									{
										OFFSET 0.000000 0.000000 0.000000
										CHANNELS 6 Xposition Yposition Zposition Zrotation Yrotation Xrotation
										End Site
										{
											OFFSET 0.000000 0.000000 0.100006
										}
									}
								}
								JOINT LeftArmEnd
								{
									OFFSET 0.000000 0.000000 0.000000
									CHANNELS 6 Xposition Yposition Zposition Zrotation Yrotation Xrotation
									End Site
									{
										OFFSET 0.000000 0.000000 0.100006
									}
								}
							}
						}
					}
				}
			}
		}
	}
	JOINT RightUpLeg
	{
		OFFSET -11.289944 0.000000 0.000000
		CHANNELS 6 Xposition Yposition Zposition Zrotation Yrotation Xrotation
		JOINT RightLeg
		{
			OFFSET 0.000000 -0.000002 -38.200321
			CHANNELS 6 Xposition Yposition Zposition Zrotation Yrotation Xrotation
			JOINT RightFoot
			{
				OFFSET 0.000000 -0.000004 -39.900856
				CHANNELS 6 Xposition Yposition Zposition Zrotation Yrotation Xrotation
				JOINT RightToeBase
				{
					OFFSET 0.000000 -15.261639 0.000001
					CHANNELS 6 Xposition Yposition Zposition Zrotation Yrotation Xrotation
					JOINT RightToeBaseEnd
					{
						OFFSET 0.000000 -7.370708 0.000000
						CHANNELS 6 Xposition Yposition Zposition Zrotation Yrotation Xrotation
						End Site
						{
							OFFSET 0.000000 0.000000 0.100000
						}
					}
				}
				JOINT RightLegEnd
				{
					OFFSET 0.000000 0.000000 0.000000
					CHANNELS 6 Xposition Yposition Zposition Zrotation Yrotation Xrotation
					End Site
					{
						OFFSET 0.000000 0.000000 0.100000
					}
				}
			}
			JOINT RightUpLegEnd
			{
				OFFSET 0.000000 0.000000 0.000000
				CHANNELS 6 Xposition Yposition Zposition Zrotation Yrotation Xrotation
				End Site
				{
					OFFSET 0.000000 0.000000 0.099998
				}
			}
		}
	}
	JOINT LeftUpLeg
	{
		OFFSET 11.315662 0.000000 0.000000
		CHANNELS 6 Xposition Yposition Zposition Zrotation Yrotation Xrotation
		JOINT LeftLeg
		{
			OFFSET 0.000000 -0.000002 -38.200321
			CHANNELS 6 Xposition Yposition Zposition Zrotation Yrotation Xrotation
			JOINT LeftFoot
			{
				OFFSET 0.000000 -0.000004 -39.900856
				CHANNELS 6 Xposition Yposition Zposition Zrotation Yrotation Xrotation
				JOINT LeftToeBase
				{
					OFFSET 0.000000 -15.261639 0.000001
					CHANNELS 6 Xposition Yposition Zposition Zrotation Yrotation Xrotation
					JOINT LeftToeBaseEnd
					{
						OFFSET 0.000000 -7.539997 0.000000
						CHANNELS 6 Xposition Yposition Zposition Zrotation Yrotation Xrotation
						End Site
						{
							OFFSET 0.000000 0.000000 0.100000
						}
					}
				}
				JOINT LeftLegEnd
				{
					OFFSET 0.000000 0.000000 0.000000
					CHANNELS 6 Xposition Yposition Zposition Zrotation Yrotation Xrotation
					End Site
					{
						OFFSET 0.000000 0.000000 0.100000
					}
				}
			}
			JOINT LeftUpLegEnd
			{
				OFFSET 0.000000 0.000000 0.000000
				CHANNELS 6 Xposition Yposition Zposition Zrotation Yrotation Xrotation
				End Site
				{
					OFFSET 0.000000 0.000000 0.099998
				}
			}
		}
	}
}
MOTION
Frames: 2
Frame Time: 0.016667
-43.019775 -14.131641 85.258095 -41.137659 7.417339 -6.580673 -0.000007 2.080110 8.814248 -0.904016 -5.875485 3.927550 0.000001 -0.000003 8.844132 -1.207421 -3.440575 1.587811 -0.000001 -0.000004 11.682259 -1.599249 -0.884075 3.650105 -0.000001 -0.000002 11.746698 -0.673382 0.605719 2.052873 -0.000006 -0.000005 17.658264 17.712885 2.315995 22.140999 0.000005 0.000003 5.101513 12.664380 2.926404 -1.787367 0.000002 -0.000014 5.101486 2.741600 4.629261 -20.225491 -0.000008 0.000004 11.655090 -0.000001 -0.000000 -0.000000 -2.625379 -0.000000 11.175220 2.176284 -90.859172 -1.009890 -0.000031 -0.000001 10.434719 -47.543260 -58.646846 45.612085 -0.000004 0.000006 29.628407 10.200938 -1.823550 33.300232 -0.000013 0.000002 22.857597 3.396146 14.026146 -18.925020 -2.867305 -2.944302 3.959583 32.468267 -13.433352 57.719845 0.000004 -0.000001 3.350411 -4.374759 3.776075 -8.408329 0.000008 0.000001 3.756497 -2.978523 2.691103 -5.806383 -0.000002 -0.000001 3.147354 0.000000 0.000001 0.000002 -0.086746 -2.345273 10.030879 -6.092320 15.551473 2.627179 -0.000009 -0.000004 4.061094 0.521013 -0.134375 -0.001234 -0.000005 -0.000008 3.248872 0.028723 0.074433 0.000071 -0.000010 0.000002 2.639696 -0.000002 0.000004 0.000001 0.104110 -0.006761 9.502950 -0.989177 14.595313 -0.081111 -0.000006 -0.000004 4.568718 0.513027 -0.000069 -0.000019 -0.000013 -0.000004 3.655011 0.014802 -0.000003 0.000003 -0.000017 0.000001 2.741256 0.000001 -0.000001 0.000000 0.086769 2.267448 8.921727 7.341917 15.262449 -3.004029 0.000005 -0.000000 4.061098 -1.022181 -0.114694 0.003431 -0.000005 0.000002 3.654989 -0.019264 0.060375 -0.000281 -0.000012 -0.000001 2.741259 0.000001 0.000001 -0.000002 -0.173500 4.467210 7.977014 16.161481 17.140220 -6.004383 -0.000008 -0.000010 3.350423 -2.017351 -0.164240 0.005797 -0.000000 -0.000000 2.842764 -0.035639 0.088822 0.035693 -0.000005 -0.000005 2.639711 0.000000 0.000001 -0.000001 0.000006 0.000005 -0.000001 -0.000000 -0.000001 0.000001 -0.000006 -0.000005 0.000001 -0.000000 0.000001 -0.000001 2.625393 0.000003 11.175220 -1.947128 91.225823 -1.022518 -0.000019 -0.000003 10.813625 45.197954 65.677794 33.927028 0.000002 -0.000004 28.724770 -0.395024 0.035745 42.762612 0.644379 0.328859 25.716162 -3.173618 -18.761111 -24.281322 2.867321 -2.944281 3.959568 -33.066889 11.900333 60.484508 -0.000005 -0.000019 3.350419 1.191964 -1.143604 -2.371714 0.000001 -0.000010 3.756533 0.822696 -0.799430 -1.643914 0.000001 -0.000018 3.100005 0.000003 -0.000001 0.000001 0.086740 -2.345274 10.030911 -13.381280 -22.317805 2.956514 0.000001 -0.000001 4.061110 0.538240 0.000037 0.071647 -0.000012 0.000005 3.248865 0.036127 -0.000004 0.059586 -0.000007 0.000001 2.639693 -0.000000 -0.000001 0.000001 -0.104111 -0.006769 9.502967 -7.296330 -19.619329 -1.052030 -0.000007 0.000002 4.568746 0.544905 0.000006 -0.000150 -0.000011 0.000000 3.654994 0.051063 -0.000001 0.060369 -0.000009 0.000002 2.741271 -0.000001 0.000001 0.000003 -0.086776 2.267442 8.921747 2.125136 -13.644306 -4.344542 0.000002 0.000000 4.061113 -1.021967 0.090401 -0.001550 -0.000005 0.000000 3.655030 -0.042333 -0.047578 0.002192 -0.000000 -0.000003 2.741244 0.000000 0.000003 -0.000001 0.173497 4.467198 7.977005 11.597374 -7.043666 -6.146665 0.000009 0.000000 3.350396 -2.023476 0.000006 -0.000081 -0.000007 -0.000002 2.842752 -0.026010 -0.000004 0.000043 -0.000013 0.000001 2.639725 0.000000 0.000001 -0.000000 -0.000006 0.000003 -0.000014 -0.000001 0.000002 0.000000 0.000004 -0.000001 -0.000002 -0.000003 -0.000004 -0.000000 -11.289952 0.000001 -0.000009 4.011135 -15.833328 6.798629 0.000001 -0.000002 -38.200321 -0.012964 0.002854 12.493832 0.000001 -0.000002 -39.900856 -16.248709 11.364216 12.809131 -0.000001 -15.261639 -0.000003 -0.828535 -0.070537 -27.605294 0.000002 -7.370703 -0.000000 -0.000002 0.000000 -0.000000 0.000000 -0.000000 -0.000002 0.000000 -0.000000 0.000005 0.000000 0.000000 -0.000002 -0.000003 0.000001 -0.000002 11.315662 0.000005 -0.000000 -7.455822 -17.307011 -4.873355 0.000007 -0.000007 -38.200321 1.069444 -1.288284 50.297349 0.000003 -0.000003 -39.900848 28.820916 -0.987032 22.838211 -0.000001 -15.261642 -0.000004 -1.075212 6.977272 -37.841813 -0.000000 -7.540001 0.000001 0.000001 0.000002 -0.000000 -0.000000 0.000002 -0.000005 -0.000001 0.000003 -0.000001 0.000002 0.000000 0.000007 -0.000001 -0.000001 0.000000 
-42.999729 -14.037048 85.236069 -41.473499 7.567516 -6.230142 -0.000002 2.080109 8.814255 -0.910035 -5.845900 3.847002 -0.000003 0.000004 8.844145 -1.202052 -3.272231 1.532453 -0.000002 0.000001 11.682274 -2.022379 -1.257132 3.528947 -0.000003 -0.000000 11.746702 -0.839592 0.302192 1.948277 -0.000003 -0.000011 17.658281 17.991470 2.609605 21.846625 0.000005 -0.000001 5.101516 12.928671 3.014462 -1.937466 -0.000003 0.000006 5.101501 2.723841 4.791756 -20.250961 -0.000003 -0.000002 11.655121 0.000000 -0.000000 -0.000000 -2.625385 -0.000003 11.175211 1.613930 -91.047596 -0.840500 0.000007 -0.000002 10.434715 -45.581073 -58.784003 43.751378 -0.000001 0.000007 29.628435 10.233442 -1.659499 33.797753 -0.000004 0.000004 22.857607 2.042998 14.903659 -18.569845 -2.867324 -2.944294 3.959587 32.521994 -13.276033 57.994638 -0.000002 0.000007 3.350434 -4.043848 3.528146 -7.797767 0.000005 0.000011 3.756505 -2.756674 2.509012 -5.386664 0.000000 0.000004 3.147339 -0.000002 0.000001 0.000001 -0.086749 -2.345284 10.030907 -5.989583 16.264507 3.127826 0.000006 0.000001 4.061092 0.523398 -0.000018 -0.000016 -0.000017 0.000006 3.248866 0.031734 0.000001 0.000037 -0.000008 0.000009 2.639725 0.000000 0.000001 -0.000000 0.104100 -0.006762 9.502954 -0.874274 15.313487 0.399448 0.000011 -0.000001 4.568710 0.515163 -0.048452 -0.000454 -0.000009 -0.000002 3.654984 0.016976 0.026969 0.000012 -0.000007 -0.000003 2.741240 0.000000 -0.000002 0.000000 0.086762 2.267447 8.921716 7.481137 15.809462 -2.549397 0.000011 0.000007 4.061085 -1.024704 -0.000015 0.001651 0.000009 -0.000002 3.654984 -0.021676 -0.000004 -0.000102 -0.000006 0.000000 2.741243 -0.000001 -0.000001 -0.000005 -0.173495 4.467199 7.976992 16.322914 17.536521 -5.564258 -0.000011 -0.000006 3.350402 -2.018988 -0.000015 0.000012 -0.000011 0.000007 2.842755 -0.039261 -0.000010 0.039432 -0.000004 -0.000011 2.639707 -0.000001 -0.000002 0.000001 -0.000003 -0.000001 -0.000002 -0.000001 -0.000004 -0.000001 0.000001 -0.000004 0.000001 -0.000001 0.000001 -0.000000 2.625404 -0.000002 11.175232 -1.829091 91.275294 -0.963635 -0.000005 0.000004 10.813623 45.263042 66.147732 33.809173 -0.000001 -0.000014 28.724792 -0.335904 0.025393 42.707503 0.644390 0.328862 25.716171 -2.906664 -19.124388 -24.338285 2.867315 -2.944289 3.959573 -33.066892 11.900325 60.484426 -0.000003 -0.000010 3.350424 1.191946 -1.143594 -2.371578 0.000007 -0.000004 3.756515 0.822700 -0.799429 -1.643963 0.000005 -0.000002 3.100006 0.000002 0.000000 0.000001 0.086736 -2.345280 10.030912 -13.438731 -22.493804 3.261369 0.000002 -0.000002 4.061118 0.539634 0.000012 0.072567 0.000005 -0.000007 3.248871 0.037440 -0.000009 0.060228 0.000001 0.000001 2.639723 0.000000 -0.000003 0.000000 -0.104124 -0.006765 9.502965 -7.352889 -19.859376 -0.826630 -0.000009 0.000005 4.568746 0.545880 0.000050 -0.000161 -0.000004 -0.000006 3.654994 0.052027 -0.000046 0.061175 -0.000004 0.000002 2.741271 0.000002 -0.000001 0.000000 -0.086774 2.267440 8.921750 2.067083 -13.968993 -4.239671 -0.000006 0.000002 4.061105 -1.023713 0.039570 -0.000638 -0.000013 -0.000005 3.654986 -0.044532 -0.020810 0.002277 -0.000012 -0.000002 2.741288 0.000001 0.000001 -0.000000 0.173497 4.467200 7.977018 11.539660 -7.452002 -6.142086 0.000001 -0.000002 3.350381 -2.025447 0.000004 -0.000085 -0.000004 0.000001 2.842762 -0.027994 -0.000008 0.000050 -0.000007 0.000004 2.639724 0.000003 0.000001 0.000002 -0.000010 0.000001 0.000015 0.000003 0.000001 0.000000 0.000003 0.000001 0.000015 0.000001 -0.000000 0.000000 -11.289949 0.000005 0.000006 4.240780 -15.967123 6.362492 0.000005 0.000004 -38.200325 -0.009144 0.001438 12.406561 0.000003 -0.000004 -39.900856 -16.037513 11.443824 12.895710 0.000001 -15.261641 -0.000000 -0.792144 -0.105695 -27.580579 0.000002 -7.370704 0.000000 -0.000001 0.000000 0.000000 -0.000001 -0.000002 0.000001 0.000001 0.000000 0.000003 0.000009 -0.000000 -0.000004 0.000003 -0.000000 0.000001 11.315666 0.000003 0.000000 -10.506682 -17.204939 -5.114837 0.000000 0.000002 -38.200317 0.699896 -0.902268 52.196821 -0.000004 -0.000003 -39.900848 26.291924 -1.579483 24.903445 -0.000002 -15.261645 0.000000 -2.161238 9.386192 -41.396492 0.000000 -7.540000 -0.000000 -0.000001 0.000001 0.000000 -0.000002 -0.000000 0.000002 0.000000 -0.000002 0.000002 -0.000004 0.000000 0.000006 0.000000 -0.000001 0.000001 
